<?xml version="1.0" encoding="UTF-8"?>
<level>
  <owner>Fistachka</owner>
  <repo>babki2</repo>
  <version>v1.0.3</version>
  <next number="1" owner="Fistachka" repo="babki3"/>
  <readme>
    <ru>b9655c4768aed0e0aac2039826ad78846a1bb977fad9e4ebea344faabbed3ad0</ru>
    <en>3ae878eaeba8b90ffc98b36b673925d0495d3610b82629494f48cdef93d89329</en>
  </readme>
  <license>b1b99f5538d1fd3702219bff50c665196dfa42f6ee755c37fe41a6178d6bc6e5</license>
  <exercise number="1">
    <scale>major</scale>
    <bpm>147</bpm>
    <lowestNote>18</lowestNote>
    <tonalities>1</tonalities>
    <video name="9t.mp4" size="685139" type="video/mp4" volume="0.5">b9300f98ad7cfe1cf6016281a79d1daf296b51e7f1791738543f7b5b917ab96f</video>
    <notes>
      <note number="1" values="188" ticks="816" durationTicks="78" ppq="96" velocity="0.799"/>
      <note number="2" values="188" ticks="911" durationTicks="79" ppq="96" velocity="0.884"/>
      <note number="3" values="188" ticks="1006" durationTicks="98" ppq="96" velocity="0.787"/>
      <note number="4" values="58" ticks="1128" durationTicks="72" ppq="96" velocity="0.847"/>
      <note number="5" values="48" ticks="1177" durationTicks="92" ppq="96" velocity="0.742"/>
      <note number="6" values="28" ticks="1273" durationTicks="95" ppq="96" velocity="0.872"/>
      <note number="7" values="38" ticks="1356" durationTicks="97" ppq="96" velocity="0.774"/>
      <note number="8" values="18" ticks="1452" durationTicks="95" ppq="96" velocity="0.774"/>
    </notes>
  </exercise>
  <exercise number="2">
    <scale>major</scale>
    <bpm>147</bpm>
    <lowestNote>18</lowestNote>
    <tonalities>1</tonalities>
    <video name="10t.mp4" size="595509" type="video/mp4" volume="0.5">de6f1c33eb3c9d057e0fcb89e2fb48aff7cb068723d4776adec580fa0f3740db</video>
    <notes>
      <note number="1" values="78" ticks="97" durationTicks="449" ppq="192" velocity="0.782"/>
      <note number="2" values="78" ticks="576" durationTicks="94" ppq="192" velocity="0.867"/>
      <note number="3" values="68" ticks="675" durationTicks="140" ppq="192" velocity="0.777"/>
      <note number="4" values="78" ticks="770" durationTicks="92" ppq="192" velocity="0.839"/>
      <note number="5" values="188" ticks="866" durationTicks="145" ppq="192" velocity="0.767"/>
      <note number="6" values="58" ticks="1058" durationTicks="193" ppq="192" velocity="0.904"/>
      <note number="7" values="58" ticks="1200" durationTicks="296" ppq="192" velocity="0.904"/>
    </notes>
  </exercise>
  <exercise number="3">
    <scale>chromaticmajor</scale>
    <bpm>147</bpm>
    <lowestNote>18</lowestNote>
    <tonalities>1</tonalities>
    <video name="11t.mp4" size="496118" type="video/mp4" volume="0.5">13c34825f08b4e8207afcc24c7c385957c9ffd6b58c42c2d8a3ece3fb802e902</video>
    <notes>
      <note number="1" values="188" ticks="55" durationTicks="132" ppq="96" velocity="0.884"/>
      <note number="2" values="188" ticks="201" durationTicks="46" ppq="96" velocity="0.913"/>
      <note number="3" values="978" ticks="246" durationTicks="95" ppq="96" velocity="0.792"/>
      <note number="4" values="968" ticks="344" durationTicks="92" ppq="96" velocity="0.832"/>
      <note number="5" values="58" ticks="439" durationTicks="93" ppq="96" velocity="0.782"/>
      <note number="6" values="58" ticks="535" durationTicks="93" ppq="96" velocity="0.857"/>
      <note number="7" values="968" ticks="630" durationTicks="94" ppq="96" velocity="0.752"/>
      <note number="8" values="978" ticks="727" durationTicks="71" ppq="96" velocity="0.752"/>
    </notes>
  </exercise>
  <exercise number="4">
    <scale>major</scale>
    <bpm>147</bpm>
    <lowestNote>58</lowestNote>
    <tonalities>1</tonalities>
    <video name="12t.mp4" size="1746018" type="video/mp4" volume="0.5">12f189b0e2c43835169f40951f18627b03d8cd39ab1891bd6e1d80b418742c86</video>
    <notes>
      <note number="1" values="288" ticks="49" durationTicks="240" ppq="96" velocity="0.779"/>
      <note number="2" values="188" ticks="289" durationTicks="48" ppq="96" velocity="0.864"/>
      <note number="3" values="78" ticks="337" durationTicks="48" ppq="96" velocity="0.699"/>
      <note number="4" values="68" ticks="385" durationTicks="45" ppq="96" velocity="0.774"/>
      <note number="5" values="588" ticks="434" durationTicks="80" ppq="96" velocity="0.727"/>
      <note number="6" values="588" ticks="529" durationTicks="83" ppq="96" velocity="0.819"/>
      <note number="7" values="588" ticks="625" durationTicks="191" ppq="96" velocity="0.819"/>
    </notes>
  </exercise>
  <exercise number="5">
    <scale>major</scale>
    <bpm>147</bpm>
    <lowestNote>18</lowestNote>
    <tonalities>1</tonalities>
    <video name="13t.mp4" size="826809" type="video/mp4" volume="0.5">fc36d190ce1b2d077ba9bebf0f47426ee4028e8fd186b088b2995a518ba8c955</video>
    <notes>
      <note number="1" values="38" ticks="32" durationTicks="37" ppq="96" velocity="0.843"/>
      <note number="2" values="38" ticks="81" durationTicks="45" ppq="96" velocity="0.913"/>
      <note number="3" values="58" ticks="127" durationTicks="39" ppq="96" velocity="0.874"/>
      <note number="4" values="58" ticks="176" durationTicks="46" ppq="96" velocity="0.921"/>
      <note number="5" values="68" ticks="225" durationTicks="34" ppq="96" velocity="0.921"/>
      <note number="6" values="68" ticks="273" durationTicks="47" ppq="96" velocity="0.921"/>
      <note number="7" values="58" ticks="321" durationTicks="67" ppq="96" velocity="0.921"/>
    </notes>
  </exercise>
  <exercise number="6">
    <scale>major</scale>
    <bpm>147</bpm>
    <lowestNote>18</lowestNote>
    <tonalities>1</tonalities>
    <video name="14t.mp4" size="739270" type="video/mp4" volume="0.5">11b817227499d6d72030f8a8a8bd7279b3e0f4555727020e4a00901b122b0e20</video>
    <notes>
      <note number="1" values="38" ticks="20" durationTicks="37" ppq="96" velocity="0.843"/>
      <note number="2" values="38" ticks="69" durationTicks="45" ppq="96" velocity="0.906"/>
      <note number="3" values="58" ticks="115" durationTicks="39" ppq="96" velocity="0.866"/>
      <note number="4" values="58" ticks="164" durationTicks="55" ppq="96" velocity="0.913"/>
      <note number="5" values="68" ticks="213" durationTicks="37" ppq="96" velocity="0.913"/>
      <note number="6" values="68" ticks="261" durationTicks="36" ppq="96" velocity="0.913"/>
      <note number="7" values="58" ticks="315" durationTicks="48" ppq="96" velocity="0.913"/>
    </notes>
  </exercise>
  <exercise number="7">
    <scale>chromaticmajor</scale>
    <bpm>147</bpm>
    <lowestNote>18</lowestNote>
    <tonalities>1</tonalities>
    <video name="15t.mp4" size="652226" type="video/mp4" volume="0.5">a274a23da2743b980eecd561b2a2d454c82cc448be537257d016e610cc54f402</video>
    <notes>
      <note number="1" values="188" ticks="19" durationTicks="65" ppq="96" velocity="0.843"/>
      <note number="2" values="188" ticks="94" durationTicks="57" ppq="96" velocity="0.913"/>
      <note number="3" values="978" ticks="139" durationTicks="45" ppq="96" velocity="0.874"/>
      <note number="4" values="978" ticks="192" durationTicks="43" ppq="96" velocity="0.921"/>
      <note number="5" values="68" ticks="236" durationTicks="40" ppq="96" velocity="0.921"/>
      <note number="6" values="68" ticks="286" durationTicks="56" ppq="96" velocity="0.921"/>
      <note number="7" values="188" ticks="333" durationTicks="93" ppq="96" velocity="0.921"/>
    </notes>
  </exercise>
  <exercise number="8">
    <scale>major</scale>
    <bpm>147</bpm>
    <lowestNote>18</lowestNote>
    <tonalities>1</tonalities>
    <video name="16t.mp4" size="2185538" type="video/mp4" volume="0.5">e3a5d13d5adf2c71a8020d07308adbf7a4ecba8c8030f6e6ccc6fcb0f475574b</video>
    <notes>
      <note number="1" values="78" ticks="57" durationTicks="65" ppq="96" velocity="0.843"/>
      <note number="2" values="78" ticks="136" durationTicks="45" ppq="96" velocity="0.906"/>
      <note number="3" values="68" ticks="181" durationTicks="40" ppq="96" velocity="0.866"/>
      <note number="4" values="78" ticks="229" durationTicks="42" ppq="96" velocity="0.913"/>
      <note number="5" values="188" ticks="278" durationTicks="40" ppq="96" velocity="0.913"/>
      <note number="6" values="188" ticks="328" durationTicks="39" ppq="96" velocity="0.913"/>
      <note number="7" values="188" ticks="375" durationTicks="93" ppq="96" velocity="0.913"/>
    </notes>
  </exercise>
</level>
